<svg width="25" height="16" viewBox="0 0 25 16" fill="none" xmlns="http://www.w3.org/2000/svg">
<path d="M16.3227 1.14711H22.561V2.6609H16.3227V1.14711ZM10.0719 7.1366C11.4509 6.47666 12.1732 5.47268 12.1732 3.92135C12.1732 0.853105 9.89056 0.108719 7.25453 0.108719H0V15.5094H7.45779C10.2533 15.5094 12.8768 14.1645 12.8768 11.0368C12.8768 9.1039 11.9637 7.67456 10.0719 7.1366ZM3.38336 2.73596H6.55722C7.77986 2.73596 8.87742 3.07688 8.87742 4.49684C8.87742 5.80421 8.02376 6.32966 6.81363 6.32966H3.38336V2.73596ZM6.995 12.8946H3.38024V8.65352H7.06692C8.55535 8.65352 9.49656 9.27592 9.49656 10.8523C9.49656 12.4036 8.37398 12.8946 6.995 12.8946ZM25 10.0954C25 6.79568 23.0707 4.04646 19.581 4.04646C16.1882 4.04646 13.8806 6.60177 13.8806 9.9515C13.8806 13.4232 16.0663 15.8065 19.581 15.8065C22.242 15.8065 23.965 14.6086 24.7936 12.0533H22.0951C21.8011 13.0072 20.6066 13.5077 19.6779 13.5077C17.8831 13.5077 16.945 12.4568 16.945 10.6709H24.9781C24.9875 10.4863 25 10.2924 25 10.0954ZM16.945 8.73797C17.0419 7.27109 18.0206 6.35468 19.4841 6.35468C21.0225 6.35468 21.7917 7.25858 21.9262 8.73797H16.945Z" fill="white"/>
</svg>
