<svg width="25" height="26" viewBox="0 0 25 26" fill="none" xmlns="http://www.w3.org/2000/svg">
<path d="M23.325 6.34317C22.2342 4.4524 20.6644 2.88264 18.7737 1.79213C16.8575 0.675623 14.7662 0.116745 12.5 0.116745C10.2338 0.116745 8.1425 0.675623 6.225 1.79213C4.30875 2.90864 2.79125 4.42648 1.675 6.34317C0.55875 8.25986 0 10.3528 0 12.6196C0 14.8864 0.5575 16.9794 1.675 18.8961C2.7654 20.7871 4.33532 22.357 6.22625 23.4471C8.1425 24.5636 10.2338 25.1225 12.5 25.1225C14.7662 25.1225 16.8575 24.5636 18.775 23.4471C20.6656 22.3566 22.2355 20.7868 23.3262 18.8961C24.4425 16.9794 25 14.8864 25 12.6196C25 10.3528 24.4425 8.25986 23.325 6.34317ZM12.5 2.19222C15 2.19222 17.215 2.9924 19.15 4.59152C18 6.05936 16.2925 7.26714 14.025 8.21735C12.7725 5.95058 11.415 4.05765 9.94875 2.54105C10.7798 2.31123 11.6378 2.1939 12.5 2.19222ZM4.3875 6.11812C5.30155 4.95714 6.45808 4.00985 7.77625 3.34248C9.29125 4.84408 10.6825 6.71826 11.9513 8.96878C9.45125 9.71895 6.80875 10.094 4.025 10.094C3.30875 10.094 2.7675 10.0778 2.4 10.044C2.78309 8.61167 3.45994 7.27471 4.3875 6.11812ZM2.075 12.6196C2.075 12.5521 2.07875 12.4696 2.0875 12.3696C2.09625 12.2695 2.1 12.187 2.1 12.1195C2.4175 12.137 2.90125 12.1445 3.55125 12.1445C6.88375 12.1445 9.98375 11.6856 12.85 10.7692C13.0837 11.2355 13.3262 11.7607 13.575 12.3446C11.925 12.7109 10.2325 13.6023 8.49875 15.0202C6.765 16.438 5.5 17.9296 4.7 19.4962C2.95 17.512 2.075 15.2202 2.075 12.6196ZM12.5 23.047C10.1325 23.047 8.0075 22.3131 6.12375 20.8477C6.875 19.3637 8.02875 17.9446 9.5875 16.5955C11.145 15.2452 12.6912 14.4038 14.225 14.0699C15.1925 16.7443 15.8469 19.5218 16.175 22.3468C15.0036 22.8047 13.7577 23.0421 12.5 23.047ZM21.35 18.0959C20.5318 19.4143 19.4301 20.5338 18.125 21.3729C17.825 18.7723 17.25 16.2379 16.4013 13.7699C17.5662 13.6874 18.6075 13.6448 19.5263 13.6448C20.525 13.6448 21.6338 13.6874 22.85 13.7699C22.6868 15.3075 22.1737 16.7874 21.35 18.0959ZM19.8 11.8444C18.35 11.8444 17.0087 11.9032 15.775 12.0195C15.5137 11.3353 15.2302 10.6598 14.925 9.99401C17.5075 8.86125 19.34 7.48594 20.4238 5.86806C21.9238 7.63597 22.7412 9.65268 22.8737 11.9195C21.8587 11.8694 20.8337 11.8444 19.8 11.8444Z" fill="white"/>
</svg>
