<svg width="32" height="40" viewBox="0 0 32 40" fill="none" xmlns="http://www.w3.org/2000/svg">
<path d="M20 0H4C2.93913 0 1.92172 0.421427 1.17157 1.17157C0.421427 1.92172 0 2.93913 0 4V36C0 37.0609 0.421427 38.0783 1.17157 38.8284C1.92172 39.5786 2.93913 40 4 40H28C29.0609 40 30.0783 39.5786 30.8284 38.8284C31.5786 38.0783 32 37.0609 32 36V12L20 0ZM18 4L28 14H18V4ZM9.062 32H7.542V29.178H5.03V32H3.496V25.254H5.03V27.846H7.544V25.254H9.064V32H9.062ZM15.062 26.536H13.22V32H11.688V26.536H9.878V25.254H15.062V26.536V26.536ZM21.636 32L21.536 29.418C21.502 28.608 21.476 27.626 21.476 26.644H21.444C21.236 27.506 20.954 28.466 20.694 29.258L19.874 31.89H18.68L17.962 29.276C17.719 28.4082 17.5148 27.53 17.35 26.644H17.328C17.286 27.556 17.26 28.596 17.21 29.436L17.09 32H15.68L16.112 25.254H18.142L18.804 27.506C19.012 28.288 19.224 29.128 19.372 29.918H19.406C19.596 29.136 19.824 28.246 20.046 27.496L20.764 25.254H22.756L23.126 32H21.636V32ZM28.504 32H24.288V25.254H25.822V30.718H28.506V32H28.504Z" fill="white"/>
</svg>
