<svg width="25" height="26" viewBox="0 0 25 26" fill="none" xmlns="http://www.w3.org/2000/svg">
<path d="M12.4966 6.2144C8.94743 6.2144 6.08305 9.07944 6.08305 12.6295C6.08305 16.1795 8.94743 19.0445 12.4966 19.0445C16.0458 19.0445 18.9102 16.1795 18.9102 12.6295C18.9102 9.07944 16.0458 6.2144 12.4966 6.2144ZM12.4966 16.7988C10.2014 16.7988 8.32828 14.9252 8.32828 12.6295C8.32828 10.3337 10.2014 8.46014 12.4966 8.46014C14.7919 8.46014 16.665 10.3337 16.665 12.6295C16.665 14.9252 14.7919 16.7988 12.4966 16.7988ZM19.1729 4.45659C18.3442 4.45659 17.675 5.12594 17.675 5.9548C17.675 6.78365 18.3442 7.453 19.1729 7.453C20.0016 7.453 20.6708 6.78678 20.6708 5.9548C20.671 5.75798 20.6324 5.56305 20.5572 5.38117C20.4821 5.19929 20.3717 5.03403 20.2326 4.89486C20.0935 4.75569 19.9282 4.64534 19.7464 4.57014C19.5646 4.49493 19.3697 4.45635 19.1729 4.45659ZM24.9986 12.6295C24.9986 10.9029 25.0142 9.19204 24.9173 7.46864C24.8204 5.46686 24.3638 3.69029 22.9004 2.22649C21.4338 0.759571 19.6607 0.306044 17.6594 0.209083C15.9333 0.112122 14.2228 0.127761 12.4998 0.127761C10.7736 0.127761 9.06313 0.112122 7.34013 0.209083C5.33881 0.306044 3.56265 0.762698 2.09918 2.22649C0.632595 3.69342 0.179172 5.46686 0.0822335 7.46864C-0.0147052 9.19516 0.000930124 10.9061 0.000930124 12.6295C0.000930124 14.3529 -0.0147052 16.0669 0.0822335 17.7903C0.179172 19.792 0.635722 21.5686 2.09918 23.0324C3.56577 24.4993 5.33881 24.9529 7.34013 25.0498C9.06626 25.1468 10.7768 25.1311 12.4998 25.1311C14.2259 25.1311 15.9364 25.1468 17.6594 25.0498C19.6607 24.9529 21.4369 24.4962 22.9004 23.0324C24.3669 21.5655 24.8204 19.792 24.9173 17.7903C25.0174 16.0669 24.9986 14.356 24.9986 12.6295ZM22.2468 20.0047C22.0185 20.574 21.7433 20.9994 21.3024 21.4373C20.8615 21.8783 20.4394 22.1535 19.8702 22.3818C18.2254 23.0355 14.3197 22.8885 12.4966 22.8885C10.6736 22.8885 6.76475 23.0355 5.11992 22.385C4.55079 22.1566 4.12551 21.8814 3.68773 21.4404C3.24681 20.9994 2.97163 20.5771 2.74336 20.0079C2.09293 18.3595 2.2399 14.4529 2.2399 12.6295C2.2399 10.806 2.09293 6.89625 2.74336 5.25105C2.97163 4.68179 3.24681 4.25642 3.68773 3.81853C4.12864 3.38064 4.55079 3.10227 5.11992 2.87394C6.76475 2.22337 10.6736 2.37037 12.4966 2.37037C14.3197 2.37037 18.2285 2.22337 19.8734 2.87394C20.4425 3.10227 20.8678 3.37751 21.3056 3.81853C21.7465 4.25954 22.0216 4.68179 22.2499 5.25105C22.9004 6.89625 22.7534 10.806 22.7534 12.6295C22.7534 14.4529 22.9004 18.3595 22.2468 20.0047Z" fill="white"/>
</svg>
