<svg width="32" height="31" viewBox="0 0 32 31" fill="none" xmlns="http://www.w3.org/2000/svg">
<path d="M2.03304 7.2412C-0.800836 11.3129 -0.449023 16.6111 1.71673 20.9377L1.87488 21.2443C1.90877 21.3089 1.94105 21.3767 1.97655 21.4396C1.99592 21.4784 2.01851 21.5155 2.03949 21.551C2.1413 21.7387 2.24785 21.9238 2.35903 22.1061L2.47684 22.2998C2.58653 22.4797 2.70006 22.6573 2.81736 22.8324C2.93296 23.0062 3.05187 23.1778 3.17401 23.3472L3.23211 23.4262C3.33378 23.5683 3.44029 23.7087 3.54842 23.8474L3.66784 23.9991L3.96156 24.359L4.07291 24.4914C4.20524 24.6479 4.34242 24.8044 4.47959 24.9578L4.48766 24.9658C4.49412 24.9723 4.49896 24.9755 4.5038 24.9836C4.63775 25.1304 4.77815 25.2757 4.91694 25.4209L5.05089 25.5549L5.38172 25.8792L5.51728 26.0084C5.66575 26.1488 5.81745 26.2859 5.97077 26.4215L5.97722 26.4279L6.0563 26.4941C6.19025 26.6119 6.32904 26.7281 6.46783 26.8411L6.63728 26.9766C6.93383 27.2144 7.23792 27.4426 7.54909 27.6609C7.59589 27.6948 7.64107 27.7287 7.68949 27.761L7.72822 27.7884C7.85087 27.8739 7.97675 27.9546 8.10101 28.0353C8.15427 28.0708 8.20753 28.1079 8.26401 28.1434C8.72761 28.4393 9.20475 28.7134 9.69386 28.9649C9.79876 29.0197 9.90204 29.0746 10.0086 29.1279L10.0812 29.1634L10.2103 29.2263C10.3749 29.3038 10.5411 29.3829 10.7073 29.4571L10.8139 29.5039C11.0059 29.5878 11.1996 29.6685 11.3948 29.7444L11.5368 29.8008C11.7412 29.8802 11.9467 29.9566 12.1533 30.03C12.3551 30.101 12.56 30.1672 12.7666 30.2301L12.9151 30.2753C13.1216 30.3382 13.3282 30.4125 13.5444 30.4528C27.249 32.951 31.2287 22.2191 31.2287 22.2191C27.8849 26.5732 21.9525 27.7222 16.3299 26.4441C16.1169 26.3957 15.9087 26.3295 15.7005 26.2682L15.544 26.2214C15.1328 26.0943 14.7263 25.9522 14.3255 25.7953L14.1754 25.7372C13.9818 25.6614 13.7897 25.5807 13.6009 25.4984L13.4863 25.4484C13.3234 25.3753 13.1614 25.3 13.0006 25.2224L12.8602 25.1546C12.7343 25.0933 12.61 25.0271 12.4858 24.9642C12.4035 24.9206 12.3179 24.8787 12.2356 24.8319C12.0845 24.7508 11.9349 24.6669 11.787 24.5801L11.6353 24.4962C11.4378 24.3799 11.2425 24.2599 11.0495 24.1363L10.8913 24.0314C10.7506 23.941 10.6113 23.8484 10.4733 23.7538L10.3394 23.6586C10.2071 23.565 10.0747 23.4714 9.94562 23.3746C9.76679 23.2405 9.59032 23.1033 9.41628 22.9631L9.25651 22.8356C9.10804 22.7129 8.95957 22.5903 8.81432 22.4628C8.63996 22.3109 8.46833 22.156 8.29952 21.998C8.25433 21.956 8.21075 21.9157 8.1688 21.8721C8.05492 21.765 7.94302 21.6557 7.83312 21.5445L7.7024 21.4138C7.56329 21.2715 7.42663 21.1267 7.29249 20.9797L7.27312 20.9603C7.13173 20.805 6.99292 20.6474 6.85676 20.4875L6.74863 20.3567C6.60872 20.1911 6.47205 20.0226 6.33872 19.8516C6.22075 19.6995 6.10508 19.5457 5.99175 19.3901C2.87061 15.1328 1.75062 9.26009 4.24398 4.43799" fill="white"/>
<path d="M10.8266 3.81021C8.77701 6.75866 8.88998 10.7061 10.4877 13.824C10.7556 14.3469 11.0573 14.8552 11.393 15.3377C11.7013 15.7783 12.0402 16.3012 12.4485 16.6546C12.5969 16.8176 12.7502 16.9758 12.9068 17.1307L13.0294 17.2501C13.1811 17.3986 13.3361 17.5438 13.4991 17.6875L13.5168 17.7036L13.5217 17.7068C13.7008 17.8634 13.8831 18.0135 14.0704 18.1603L14.1962 18.2572C14.3891 18.4067 14.5861 18.5509 14.7869 18.6897C14.8724 18.7494 14.9612 18.8059 15.0467 18.8623C15.0887 18.8898 15.129 18.9188 15.1726 18.9446C15.332 19.0476 15.494 19.1466 15.6584 19.2416C15.781 19.3126 15.9085 19.382 16.0344 19.4514C16.0763 19.4756 16.1231 19.4982 16.1667 19.5208C16.2555 19.566 16.341 19.6128 16.4298 19.6547C16.6242 19.7508 16.8206 19.8428 17.0188 19.9307L17.1382 19.9807C17.2883 20.0437 17.4384 20.105 17.5917 20.1631L17.7805 20.2341C17.9193 20.2857 18.0565 20.3309 18.1937 20.3777L18.3825 20.4374C18.5778 20.4988 18.7746 20.5746 18.9796 20.6101C29.5598 22.3627 31.9999 14.2178 31.9999 14.2178C29.7987 17.3873 25.535 18.9011 20.9856 17.7198C20.58 17.6148 20.1798 17.4899 19.7865 17.3453L19.5961 17.276C19.4043 17.2027 19.2143 17.1247 19.0264 17.0419C18.8395 16.9604 18.6544 16.8749 18.4713 16.7853C18.3793 16.7402 18.2889 16.6917 18.1969 16.6449L18.0371 16.5626C17.7449 16.4038 17.458 16.2353 17.177 16.0575L17.0479 15.972C16.7128 15.7538 16.3886 15.5196 16.0763 15.27C14.0849 13.6981 12.5049 11.5485 11.7545 9.11323C10.967 6.58598 11.138 3.7505 12.5001 1.44757" fill="white"/>
<path d="M18.2263 1.24749C17.0176 3.02592 16.8981 5.23202 17.7357 7.19604C18.6201 9.2811 20.4324 10.9143 22.5465 11.6905C22.671 11.7371 22.7969 11.7796 22.9242 11.818C23.0484 11.8568 23.1695 11.9036 23.3002 11.9262C29.1422 13.0542 30.7254 8.92929 31.1466 8.32087C29.7587 10.3204 27.4251 10.7997 24.5654 10.1041C24.0442 9.96634 23.5369 9.78049 23.05 9.54899C22.5411 9.30342 22.0574 9.00885 21.6057 8.66946C19.0477 6.72642 17.4533 3.01946 19.1268 0" fill="white"/>
</svg>
