<svg width="30" height="38" viewBox="0 0 30 38" fill="none" xmlns="http://www.w3.org/2000/svg">
<path d="M18.6666 0.666687H3.99992C3.02746 0.666687 2.09483 1.053 1.40719 1.74063C0.71956 2.42826 0.333252 3.36089 0.333252 4.33335V33.6667C0.333252 34.6391 0.71956 35.5718 1.40719 36.2594C2.09483 36.947 3.02746 37.3334 3.99992 37.3334H25.9999C26.9724 37.3334 27.905 36.947 28.5926 36.2594C29.2803 35.5718 29.6666 34.6391 29.6666 33.6667V11.6667L18.6666 0.666687ZM13.6341 26.6744C13.6341 29.1402 12.4534 30 10.5523 30C10.1031 30 9.51275 29.923 9.12775 29.7947L9.34592 28.2162C9.61542 28.306 9.96192 28.3702 10.3469 28.3702C11.1683 28.3702 11.6834 27.998 11.6834 26.6505V21.2055H13.6341V26.6744ZM17.3796 29.9872C16.3914 29.9872 15.4161 29.7287 14.9284 29.461L15.3263 27.8422C15.8524 28.1117 16.6628 28.3812 17.4969 28.3812C18.3971 28.3812 18.8701 28.009 18.8701 27.4444C18.8701 26.9035 18.4594 26.5955 17.4199 26.2234C15.9826 25.7247 15.0457 24.9272 15.0457 23.6677C15.0457 22.19 16.2778 21.0607 18.3201 21.0607C19.2972 21.0607 20.0159 21.266 20.5292 21.497L20.0929 23.0755C19.7464 22.9087 19.1304 22.6649 18.2834 22.6649C17.4364 22.6649 17.0239 23.0499 17.0239 23.499C17.0239 24.0509 17.5134 24.2965 18.6281 24.7182C20.1571 25.2847 20.8757 26.0785 20.8757 27.2995C20.8721 28.7534 19.7574 29.9872 17.3796 29.9872ZM18.6666 13.5H16.8333V4.33335L25.9999 13.5H18.6666Z" fill="white"/>
</svg>
