<svg width="25" height="26" viewBox="0 0 25 26" fill="none" xmlns="http://www.w3.org/2000/svg">
<path d="M23.1483 0.0986176H1.84549C0.826736 0.0986176 0 0.906095 0 1.90042V23.3001C0 24.2959 0.826736 25.1044 1.84549 25.1044H23.1483C24.1677 25.1044 25 24.2959 25 23.3001V1.90042C25 0.906095 24.1677 0.0986176 23.1483 0.0986176ZM7.41458 21.407H3.70486V9.47404H7.41458V21.407ZM5.55972 7.84242C5.27735 7.84242 4.99775 7.78677 4.7369 7.67864C4.47604 7.57052 4.23904 7.41204 4.03944 7.21226C3.83984 7.01249 3.68156 6.77533 3.57362 6.51435C3.46569 6.25336 3.41023 5.97366 3.41042 5.69123C3.41042 5.12111 3.63684 4.57434 4.03988 4.17121C4.44292 3.76808 4.98956 3.5416 5.55955 3.5416C6.12953 3.5416 6.67617 3.76808 7.07921 4.17121C7.48225 4.57434 7.70868 5.12111 7.70868 5.69123C7.70868 6.26146 7.48233 6.80836 7.07937 7.21173C6.67641 7.61511 6.12982 7.84196 5.55972 7.84242ZM21.3021 21.407H17.5983V15.6043C17.5983 14.2199 17.5712 12.44 15.6708 12.44C13.741 12.44 13.4469 13.9476 13.4469 15.5039V21.4074H9.74028V9.47404H13.2976V11.1036H13.3483C13.8434 10.1659 15.0531 9.17641 16.8573 9.17641C20.6094 9.17641 21.3024 11.6471 21.3024 14.8614V21.407H21.3021Z" fill="white"/>
</svg>
