<svg width="423" height="84" viewBox="0 0 423 84" fill="none" xmlns="http://www.w3.org/2000/svg">
<path d="M103.156 68.6097C101.874 67.3931 101.532 66.388 100.891 64.0075C100.784 63.6901 100.73 63.1347 100.73 62.3412C100.73 61.5477 100.73 60.9923 100.73 60.6749C100.41 61.4684 99.8222 62.1825 98.9674 62.8173C97.7389 64.0339 96.5101 64.9333 95.2815 65.5151C93.4119 66.7318 91.8895 67.3402 90.7142 67.3402C89.6459 67.3402 88.6308 66.7583 87.6693 65.5945C86.9748 65.0127 86.4407 64.4307 86.0667 63.8488C85.7462 63.267 85.5859 62.5529 85.5859 61.7064C85.5859 61.1246 85.6661 60.4898 85.8263 59.8021C85.9331 57.8447 86.2003 55.967 86.6276 54.1683C87.1084 52.3697 87.9898 50.0686 89.2719 47.265C90.9812 43.9324 92.21 41.7107 92.9578 40.5998C93.2248 40.494 93.5722 40.4411 93.9995 40.4411C94.5337 40.4411 94.961 40.5998 95.2815 40.9172C95.6555 41.2346 95.8691 41.6577 95.9225 42.1867C96.0828 42.3984 96.1629 42.6892 96.1629 43.0596C96.1629 44.3821 95.3616 46.5509 93.7591 49.5661C91.6757 54.5387 90.634 57.9771 90.634 59.8814C90.634 60.9923 90.9546 61.6535 91.5956 61.8651C91.8626 62.0238 92.1565 62.1032 92.477 62.1032C93.8126 62.1032 95.4151 61.204 97.2847 59.4053C99.1543 57.6067 100.944 54.7238 102.653 50.7564C103.401 48.9577 103.855 47.1063 104.016 45.202C103.962 45.0433 103.935 44.8052 103.935 44.4878C103.935 43.5357 104.416 42.7686 105.378 42.1867C105.591 41.8694 105.885 41.6313 106.259 41.4726C106.633 41.2609 106.874 41.2609 106.98 41.4726L108.262 41.3933C108.423 41.3403 108.583 41.499 108.743 41.8694C108.903 42.1867 109.064 42.3984 109.224 42.5041C109.598 42.8215 109.785 43.4034 109.785 44.2498C109.785 45.9955 109.01 48.6669 107.461 52.264C106.446 54.38 105.752 56.0197 105.378 57.1836C105.057 58.2944 104.87 59.3789 104.817 60.4369C104.817 62.447 105.591 64.1133 107.141 65.4358C107.675 65.8062 107.377 65.4094 107.483 65.8325C107.59 66.2557 107.617 66.8377 107.563 67.5782C107.457 68.0543 107.136 68.451 106.602 68.7684C106.121 69.0329 105.587 69.1652 104.999 69.1652C104.305 69.1652 103.691 68.9801 103.156 68.6097ZM114.423 69.1652C113.782 68.9535 113.114 68.3453 112.42 67.3402C111.725 66.2822 111.378 65.3301 111.378 64.4836L112.5 61.151L114.022 56.3901C114.503 55.7023 114.877 54.8825 115.144 53.9303C115.465 52.9251 115.651 52.3433 115.705 52.1846C116.239 51.1795 117.308 48.7463 118.91 44.8846L120.433 41.2346C121.928 38.0606 123.157 35.2041 124.118 32.6649L125.401 29.7291L126.923 26.2377C128.793 21.7413 129.834 19.1228 130.048 18.3823C130.048 17.9591 130.128 17.6417 130.288 17.4301C130.502 17.2184 130.716 17.1127 130.929 17.1127C131.196 16.8483 131.624 16.7159 132.211 16.7159C132.478 16.7159 132.906 17.1391 133.494 17.9855C134.081 18.779 134.375 19.4667 134.375 20.0486C134.375 20.9478 133.948 22.5877 133.093 24.9682C132.238 27.2956 131.09 29.8878 129.647 32.7443C124.412 43.906 122.008 49.6985 122.436 50.1216C122.649 50.0158 123.103 49.8042 123.798 49.4868C124.492 49.1164 125.214 48.6669 125.961 48.1379C126.442 47.8734 126.896 47.6088 127.324 47.3444C127.751 47.027 128.125 46.7626 128.445 46.5509C130.101 45.44 131.116 44.8316 131.49 44.7259C131.811 44.5142 132.425 44.1441 133.333 43.615C134.295 42.9802 134.802 42.6364 134.856 42.5835C135.497 42.2661 136.031 42.1074 136.458 42.1074C136.779 42.1074 137.073 42.2131 137.34 42.4248C137.607 42.6364 137.927 42.9538 138.301 43.377C138.622 43.7473 138.782 44.1175 138.782 44.4878C138.782 44.8582 138.568 45.2549 138.141 45.6781C137.714 46.0484 136.993 46.5509 135.977 47.1857C135.283 47.6618 134.562 48.1115 133.814 48.5346C133.066 48.9577 132.345 49.3811 131.651 49.8042C127.804 52.1317 125.828 53.3749 125.721 53.5336C125.828 53.7452 126.068 54.2213 126.442 54.9618C126.869 55.7023 127.27 56.3371 127.644 56.8662L128.846 58.9292C129.487 59.8284 129.808 60.4105 129.808 60.6749C130.288 61.9974 130.929 63.029 131.731 63.7695C132.585 64.51 133.494 64.8804 134.455 64.8804C134.936 64.8804 135.497 64.748 136.138 64.4836C136.939 64.1662 137.58 64.0075 138.061 64.0075C138.809 64.0075 139.316 64.4307 139.583 65.2771C139.744 65.5945 139.824 65.8325 139.824 65.9912C139.824 66.2029 139.45 66.679 138.702 67.4195C137.313 68.7948 135.897 69.4826 134.455 69.4826C133.974 69.4826 133.413 69.3502 132.772 69.0858C131.971 69.1388 130.956 68.6097 129.727 67.4989C128.552 66.388 126.896 64.4572 124.759 61.7064C124.759 61.4948 124.466 60.8072 123.878 59.6434C123.664 59.1673 123.424 58.7442 123.157 58.3738C122.89 57.9507 122.703 57.6597 122.596 57.501C122.596 57.2893 122.462 57.0249 122.195 56.7075C121.982 56.3371 121.821 56.0463 121.715 55.8347C121.127 55.676 120.646 55.7289 120.272 55.9934C119.952 56.2578 119.631 56.6281 119.311 57.1042C119.044 57.5803 118.83 57.9241 118.67 58.1358C118.135 59.5111 117.601 61.204 117.067 63.214C116.533 65.1714 116.346 66.4409 116.506 67.0228C116.506 67.8692 116.373 68.451 116.106 68.7684C115.839 69.0329 115.278 69.1652 114.423 69.1652ZM155.227 66.7847C153.892 67.9486 152.289 68.5304 150.42 68.5304C149.084 68.5304 147.802 68.213 146.573 67.5782C145.398 66.9434 144.41 66.0706 143.609 64.9597C142.914 64.1133 142.407 63.1611 142.086 62.1032C141.766 61.0453 141.605 59.7491 141.605 58.2151C141.605 57.686 141.659 56.6281 141.766 55.0412C141.926 53.0838 142.567 51.0474 143.689 48.9313C144.864 46.8153 146.306 44.9376 148.016 43.2976C149.725 41.6049 151.408 40.4411 153.064 39.8063C153.919 39.2772 154.693 39.0128 155.387 39.0128C155.761 39.0128 156.135 39.0392 156.509 39.0922C156.883 39.1451 157.284 39.1979 157.711 39.2509C158.887 39.4096 159.768 39.6476 160.355 39.965C160.996 40.2294 161.531 40.6527 161.958 41.2346C163.294 42.5571 163.961 44.0911 163.961 45.8368C163.748 47.1063 162.92 48.561 161.477 50.2009C160.035 51.8409 158.299 53.1632 156.269 54.1683C155.307 54.4857 154.212 54.6444 152.984 54.6444C151.328 54.6444 149.992 54.3007 148.977 53.6129C148.496 53.4542 148.122 53.3749 147.855 53.3749C147.375 53.3749 147.001 53.6922 146.734 54.327C146.52 54.9618 146.306 56.1257 146.093 57.8184C146.039 58.1887 146.012 58.7176 146.012 59.4053C146.012 62.1032 146.92 63.5844 148.737 63.8488C149.965 64.1133 150.847 64.2456 151.381 64.2456C152.022 64.2456 152.743 64.0339 153.545 63.6108L155.067 62.738C155.387 62.5793 155.681 62.3676 155.948 62.1032C156.215 61.8387 156.456 61.6007 156.67 61.389C156.776 61.2833 156.937 61.1246 157.15 60.9129C157.364 60.6485 157.551 60.4898 157.711 60.4369C157.925 60.3311 158.112 60.2782 158.272 60.2782C158.486 60.2782 158.726 60.4105 158.993 60.6749C159.26 60.8866 159.474 61.0453 159.634 61.151C160.115 61.151 160.222 61.4948 159.955 62.1825C159.688 62.8173 159.1 63.5844 158.192 64.4836C157.337 65.3301 156.349 66.097 155.227 66.7847ZM155.147 49.9629C156.055 49.5925 156.963 48.9314 157.871 47.9792C158.833 47.027 159.314 46.2335 159.314 45.5987C159.314 44.9639 159.073 44.4349 158.593 44.0118C158.112 43.5886 157.444 43.377 156.589 43.377C155.948 43.377 155.468 43.4299 155.147 43.5357C154.399 43.7473 153.518 44.3291 152.503 45.2813C151.488 46.1805 150.606 47.1063 149.859 48.0585C149.111 49.0107 148.817 49.5661 148.977 49.7248C149.244 50.2009 150.286 50.439 152.102 50.439C153.331 50.439 154.346 50.2803 155.147 49.9629ZM172.471 71.5456C170.654 70.6992 169.746 69.4296 169.746 67.7369C169.746 67.2078 169.826 66.679 169.987 66.1499C170.414 64.2456 171.188 61.5213 172.31 57.9771C173.486 54.4328 174.527 51.7615 175.435 49.9629C175.809 49.3281 176.103 48.6669 176.317 47.9792C176.53 47.2914 176.664 46.8419 176.717 46.6303C176.984 45.6781 177.145 45.1226 177.198 44.9639L177.118 44.1705C177.118 43.9588 177.171 43.7473 177.278 43.5357C177.385 43.324 177.572 43.086 177.839 42.8215C178.587 42.1867 179.388 40.9436 180.243 39.0922L183.288 30.4432L184.249 27.7454C184.303 27.5337 184.41 27.1635 184.57 26.6345C184.73 26.1054 184.81 25.7353 184.81 25.5236C184.81 25.3119 184.757 25.2062 184.65 25.2062C184.223 25.3119 183.368 25.3913 182.086 25.4443C181.445 25.55 180.964 25.6293 180.644 25.6823C180.323 25.6823 180.083 25.7087 179.923 25.7616H179.362C178.347 25.7616 177.839 25.3913 177.839 24.6508C177.999 23.6986 178.32 22.7994 178.801 21.9529C179.335 21.1065 179.976 20.657 180.724 20.604L183.849 19.8899C184.33 19.7841 184.997 19.7312 185.852 19.7312C186.6 19.7312 187.374 19.8105 188.176 19.9692C188.817 19.5461 189.164 19.1757 189.217 18.8583C189.431 17.9591 189.912 17.245 190.66 16.7159C191.408 16.1869 192.182 15.9225 192.983 15.9225C193.625 15.9225 194.159 16.1075 194.586 16.4779C195.013 16.7953 195.227 17.2978 195.227 17.9855C195.227 18.3029 195.2 18.5409 195.147 18.6996C195.147 18.7526 195.147 18.8583 195.147 19.017C195.147 19.1228 195.307 19.1757 195.628 19.1757C196.162 19.1757 197.738 18.8847 200.355 18.3029C200.783 18.2499 201.504 18.1972 202.519 18.1442C203.587 18.0385 204.469 17.9855 205.163 17.9855C206.178 17.9855 206.953 18.0649 207.487 18.2236C207.968 18.1178 208.395 18.0649 208.769 18.0649C209.143 18.0649 209.463 18.0385 209.73 17.9855C210.638 17.9855 211.199 17.9062 211.413 17.7475C211.894 17.8532 212.428 17.9591 213.016 18.0649C213.657 18.1178 214.111 18.1972 214.378 18.3029C214.645 18.4086 214.885 18.5409 215.099 18.6996C215.259 18.9113 215.339 19.0964 215.339 19.2551C215.339 19.4138 215.313 19.5195 215.259 19.5725L215.099 19.4931C215.152 19.4931 215.233 19.5461 215.339 19.6518C215.5 19.7048 215.66 19.8105 215.82 19.9692C216.247 20.1809 216.461 20.7097 216.461 21.5562C216.461 22.191 216.354 22.8258 216.141 23.4605C216.087 23.7779 215.954 24.016 215.74 24.1747C215.58 24.2804 215.153 24.3598 214.458 24.4127C213.763 24.4127 212.855 24.3863 211.734 24.3334C209.704 24.0689 208.021 23.9366 206.686 23.9366C204.816 23.9366 201.931 24.2011 198.032 24.7301C197.07 24.7831 196.162 24.9152 195.307 25.1269C194.506 25.3385 193.999 25.4706 193.785 25.5236C193.518 25.5236 193.117 25.9203 192.583 26.7138C192.049 27.5073 191.568 28.5125 191.141 29.7291C190.82 30.2051 189.832 32.5063 188.176 36.6324C186.894 39.5946 186.253 41.0759 186.253 41.0759C186.894 41.2875 188.122 41.3933 189.939 41.3933C192.342 41.3933 195.841 41.1816 200.435 40.7585C202.519 40.3353 203.934 40.1767 204.682 40.2824C205.163 40.3353 205.564 40.6791 205.884 41.3139C206.258 41.8957 206.445 42.5571 206.445 43.2976C206.445 43.8267 206.338 44.3028 206.125 44.7259C205.911 45.149 205.617 45.4664 205.243 45.6781C204.121 46.3658 201.798 46.8947 198.272 47.265C195.922 47.4767 192.69 47.5824 188.576 47.5824C186.386 47.5824 185.077 47.5295 184.65 47.4237C184.543 47.4767 184.383 47.6354 184.169 47.8998C184.009 48.1642 183.929 48.4816 183.929 48.852C182.967 50.5977 181.605 53.6923 179.842 58.1358C178.133 62.5793 177.278 65.2771 177.278 66.2293C176.904 67.1815 176.611 68.266 176.397 69.4826C176.343 69.6942 176.263 69.985 176.156 70.3554C176.05 70.7258 175.943 70.9638 175.836 71.0695C175.676 71.863 175.141 72.2598 174.233 72.2598C173.486 72.2598 172.898 72.0217 172.471 71.5456ZM211.196 69.0065C210.555 69.0065 210.047 68.9007 209.674 68.6891C209.3 68.4774 208.765 68.0807 208.071 67.4989C207.002 66.388 206.174 65.2507 205.587 64.0869C204.999 62.8703 204.786 61.8122 204.946 60.9129C205.106 60.5426 205.159 60.1724 205.106 59.8021C205.106 59.4317 205.106 59.1937 205.106 59.0879C204.892 58.8763 204.786 58.7442 204.786 58.6912C204.786 58.5855 204.839 58.5061 204.946 58.4532C205.053 58.3474 205.133 58.2415 205.186 58.1358C205.507 58.1358 205.614 57.8447 205.507 57.2629C205.4 56.8398 205.587 55.914 206.068 54.4857C206.548 53.0575 207.163 51.7349 207.911 50.5183C208.498 49.5661 209.353 48.3759 210.475 46.9476C211.65 45.5194 212.692 44.4349 213.6 43.6944C216.271 41.4196 218.675 40.0443 220.811 39.5682C221.88 39.3038 222.921 39.1715 223.936 39.1715C225.486 39.1715 226.687 39.5946 227.542 40.4411C228.717 40.9172 229.572 41.6049 230.106 42.5041C230.64 43.4034 230.988 44.5936 231.148 46.0748C231.201 46.3922 231.228 46.9213 231.228 47.6618C231.228 51.5762 229.732 55.6496 226.741 59.8814C225.512 61.6271 224.284 63.029 223.055 64.0869C221.826 65.1448 220.331 66.2029 218.568 67.2608C217.606 67.8956 216.591 68.3187 215.523 68.5304C214.454 68.742 213.012 68.9007 211.196 69.0065ZM219.369 59.326C220.384 58.4268 221.105 57.5274 221.533 56.6281C222.013 55.676 222.681 54.036 223.536 51.7085C223.856 51.2325 224.017 50.2803 224.017 48.852C224.017 47.5824 223.829 46.8683 223.456 46.7096C223.188 46.4979 222.868 46.3922 222.494 46.3922C222.013 46.3922 221.239 46.7626 220.17 47.5031C218.301 49.09 216.725 50.7564 215.443 52.502C214.214 54.1947 213.359 56.1521 212.879 58.3738C212.825 58.5855 212.799 58.9029 212.799 59.326C212.799 61.1246 213.44 62.0238 214.722 62.0238C215.95 62.0238 217.499 61.1246 219.369 59.326ZM234.698 67.4195C233.95 66.8377 233.363 66.2822 232.935 65.7532C232.508 65.2241 232.374 64.4836 232.535 63.5314C232.695 61.7328 233.096 59.6434 233.737 57.2629L234.137 55.676C234.297 54.2477 235.125 51.4441 236.621 47.265C238.17 43.0332 239.452 40.1767 240.467 38.6954C241.001 38.1664 241.91 37.9019 243.192 37.9019C244.26 37.9019 245.008 38.1136 245.435 38.5367C245.863 38.8541 246.076 39.3832 246.076 40.1237C246.076 41.3403 245.302 43.4827 243.753 46.5509L242.951 48.2172C242.577 48.905 242.257 49.5398 241.99 50.1216C241.776 50.7034 241.803 50.968 242.07 50.9151C242.658 49.9099 244.073 48.5346 246.317 46.7889C248.614 45.0433 250.19 43.9588 251.044 43.5357C251.418 43.324 251.899 43.1125 252.486 42.9009C253.075 42.6892 253.476 42.5305 253.688 42.4248C254.65 41.9487 255.745 41.7107 256.973 41.7107C257.829 41.7107 258.55 41.843 259.137 42.1074C259.778 42.3191 260.206 42.6628 260.419 43.1389C260.473 43.5093 260.607 43.8001 260.819 44.0118C261.088 44.2234 261.274 44.3555 261.38 44.4085C261.541 44.4085 261.649 44.4878 261.701 44.6465C261.755 44.7523 261.781 44.8316 261.781 44.8846C261.781 45.3077 261.408 45.8631 260.659 46.5509C259.912 47.1857 259.137 47.5295 258.335 47.5824C257.749 47.6354 257.134 47.7675 256.493 47.9792C255.851 48.1908 255.21 48.4553 254.569 48.7727L252.486 49.9629C250.671 50.8621 249.121 51.7615 247.839 52.6607C246.61 53.5072 245.355 54.618 244.073 55.9934C243.806 56.2578 243.405 56.6281 242.871 57.1042C242.39 57.5803 241.963 58.1358 241.589 58.7705C241.215 59.1409 240.815 60.1195 240.387 61.7064C240.013 63.2404 239.826 64.1926 239.826 64.563C239.773 64.7217 239.666 65.0391 239.506 65.5151C239.346 65.9912 239.105 66.4144 238.785 66.7847C238.304 67.3665 237.903 67.7899 237.583 68.0543C237.262 68.3187 236.915 68.451 236.541 68.451C236.007 68.451 235.392 68.1073 234.698 67.4195ZM262.69 69.8793C261.463 69.7206 260.395 68.9007 259.485 67.4195C258.632 65.9383 258.203 64.2985 258.203 62.4999L258.283 61.5477C258.498 59.6963 258.898 57.9771 259.485 56.3901C260.074 54.8031 260.982 53.0838 262.21 51.2324C263.065 49.6984 264.642 48.0321 266.937 46.2335C269.235 44.3821 271.264 43.1653 273.027 42.5835C274.309 42.1074 275.485 41.8694 276.553 41.8694C277.514 41.8694 278.476 42.028 279.437 42.3454C280.187 42.7158 280.774 42.9009 281.2 42.9009C281.735 42.9009 282.082 42.6364 282.242 42.1074C282.402 41.843 282.617 41.3403 282.883 40.5998C283.203 39.8063 283.498 39.1715 283.764 38.6954L285.527 33.5378L287.611 28.6182L289.934 23.2225C291.324 20.5247 292.633 19.1757 293.861 19.1757C294.341 19.1757 294.742 19.308 295.062 19.5725C295.812 20.1015 296.373 20.6304 296.745 21.1594C297.174 21.6885 297.386 22.3761 297.386 23.2225C297.386 23.9103 297.146 24.8624 296.665 26.079C295.758 27.613 294.85 29.3323 293.941 31.2367L292.739 33.9345C291.296 37.3201 290.443 39.3566 290.175 40.0443L289.534 42.1867C289.053 43.668 288.706 44.9376 288.492 45.9955C288.065 48.2702 287.691 49.4074 287.37 49.4074C286.409 50.4126 285.501 53.5336 284.646 58.7705C284.433 60.0401 284.325 62.4735 284.325 66.0706C284.325 67.3402 284.273 68.213 284.165 68.6891C284.059 69.1652 283.844 69.4296 283.524 69.4826C282.671 69.5883 282.082 69.6413 281.761 69.6413C280.533 69.6413 279.598 69.2975 278.957 68.6097C278.263 67.9749 277.809 67.4459 277.594 67.0228C277.382 66.5467 277.302 65.9912 277.354 65.3565C277.408 64.7217 277.408 64.0605 277.354 63.3727C277.354 62.6322 277.382 62.0768 277.434 61.7064C277.274 61.4948 276.741 61.8387 275.832 62.738C275.351 63.2141 274.738 63.7431 273.989 64.3249C272.12 66.388 270.437 67.8692 268.941 68.7684C267.498 69.6149 265.976 70.038 264.373 70.038C264.001 70.038 263.44 69.985 262.69 69.8793ZM265.335 63.214C266.19 63.214 267.017 62.923 267.819 62.3412C268.674 61.7594 269.529 61.098 270.383 60.3575C271.238 59.564 271.853 58.9822 272.226 58.6118C273.722 57.1836 275.325 55.3322 277.034 53.0575C278.796 50.7827 279.678 49.4338 279.678 49.0107C279.678 48.6403 279.251 48.2966 278.396 47.9792C277.594 47.6618 276.927 47.5824 276.392 47.7411C275.219 48.0056 274.177 48.5082 273.267 49.2487C272.414 49.9365 271.292 51.1267 269.902 52.8194C268.354 54.6708 267.098 56.5224 266.136 58.3738C265.229 60.1724 264.774 61.5214 264.774 62.4206C264.774 62.9496 264.962 63.214 265.335 63.214ZM319.93 69.0065C318.434 69.4296 317.312 69.6413 316.565 69.6413C315.497 69.6413 314.616 69.2975 313.921 68.6097C313.761 68.3981 313.466 68.0279 313.039 67.4989C312.665 66.917 312.372 66.3086 312.158 65.6738C311.998 64.9861 311.918 64.1398 311.918 63.1347C311.918 62.3942 311.944 61.7594 311.998 61.2303C312.052 60.7013 312.104 60.2782 312.158 59.9608L312.318 57.6597C312.585 56.5488 312.719 55.4379 312.719 54.327C312.719 52.8988 312.478 52.1846 311.998 52.1846C310.449 51.9202 306.254 55.623 299.417 63.2934C298.776 64.1398 298.43 64.6423 298.376 64.801C297.841 65.5415 297.388 66.1499 297.014 66.626C296.639 67.1021 296.373 67.3402 296.212 67.3402C294.77 67.3931 293.542 67.0757 292.526 66.388C291.511 65.6475 290.924 64.7481 290.764 63.6901C290.709 63.1611 291.779 59.6434 293.969 53.1368L297.494 42.8215C297.921 41.499 298.696 39.5153 299.818 36.8704L301.341 32.9823L302.302 30.6019L305.988 20.9214V20.604C305.988 19.7048 306.174 19.07 306.549 18.6996L307.671 18.6203C307.671 18.5146 308.045 18.6467 308.793 19.017C309.594 19.3344 310.315 19.7312 310.956 20.2073C311.651 20.6304 311.998 20.9744 311.998 21.2388C312.158 21.6091 312.238 22.0323 312.238 22.5084C312.238 23.725 311.623 25.8146 310.395 28.7769C309.914 29.4646 309.193 31.1309 308.232 33.7758C307.697 35.2571 307.296 36.2886 307.03 36.8704C306.495 37.8226 305.694 39.6476 304.626 42.3454C303.558 45.0433 302.677 47.6088 301.982 50.0422C301.555 51.0474 301.341 51.7879 301.341 52.264C301.341 52.5284 301.421 52.6607 301.581 52.6607C301.956 52.6607 302.543 52.1582 303.344 51.1531C306.228 48.1379 308.472 45.9691 310.075 44.6465C311.677 43.324 313.093 42.7158 314.321 42.8215C315.069 42.9802 316.084 43.6414 317.366 44.8052C318.702 45.9161 319.53 46.8947 319.85 47.7411C320.171 48.905 320.331 50.0952 320.331 51.3118C320.331 52.1053 320.197 54.4328 319.93 58.2945C319.504 60.9393 319.289 62.4735 319.289 62.8967C319.289 63.3727 319.344 63.7165 319.45 63.9282C319.61 64.1398 319.904 64.4306 320.331 64.801C320.972 65.2771 321.293 65.9383 321.293 66.7847C321.293 67.7899 320.838 68.5304 319.93 69.0065ZM333.705 68.451C333.17 68.5568 332.689 68.6097 332.262 68.6097C331.567 68.6097 330.926 68.5568 330.339 68.451C329.75 68.2923 329.458 68.1073 329.458 67.8956C329.458 67.7369 329.43 67.6312 329.378 67.5782C329.324 67.5252 329.217 67.4989 329.057 67.4989C328.897 67.3402 328.522 67.0757 327.935 66.7054C327.4 66.2822 326.946 65.9912 326.573 65.8325C325.932 64.9333 325.612 63.9546 325.612 62.8967C325.612 61.8915 325.932 60.2782 326.573 58.0564C326.625 55.9934 327.374 53.6922 328.817 51.1531C330.311 48.561 332.102 46.1805 334.185 44.0118C336.269 41.79 338.138 40.203 339.794 39.2509C340.596 38.4574 341.717 38.0606 343.16 38.0606C344.282 38.0606 345.269 38.2987 346.125 38.7748C346.818 39.1979 347.673 40.0973 348.689 41.4726C349.756 42.8479 350.558 44.0911 351.093 45.202C351.199 45.5723 351.333 46.0748 351.493 46.7096C351.706 47.3444 351.814 48.1115 351.814 49.0107L351.653 51.2324C351.012 53.4012 350.692 55.3586 350.692 57.1042C350.584 57.8447 350.638 58.4531 350.852 58.9292C351.064 59.3524 351.359 59.564 351.734 59.564C352 59.564 352.294 59.4847 352.615 59.326C352.935 59.1673 353.308 59.0879 353.737 59.0879C354.43 59.0879 355.019 59.2996 355.5 59.7227C355.98 60.1458 356.221 60.6749 356.221 61.3097C356.221 61.8387 356.087 62.3412 355.82 62.8173C355.339 63.8752 354.43 64.8274 353.096 65.6738C351.814 66.5203 350.612 66.9434 349.49 66.9434C348.58 66.9434 347.699 66.4673 346.846 65.5151C346.044 64.563 345.403 63.3198 344.923 61.7858L344.442 59.9608L341.557 62.5793L339.714 64.4043C338.859 65.2507 338.378 65.7532 338.272 65.9119C338.003 66.335 337.523 66.7318 336.83 67.1021C336.189 67.4725 335.147 67.922 333.705 68.451ZM335.868 60.8336C336.83 60.3045 337.631 59.6434 338.272 58.8499C338.965 58.0564 339.82 56.9455 340.836 55.5173C341.048 55.1999 341.263 54.8825 341.477 54.5651C341.689 54.1947 341.958 53.8246 342.278 53.4542C343.186 52.2376 343.827 51.2588 344.201 50.5183C344.628 49.7778 344.949 48.9843 345.163 48.1379C344.949 47.4501 344.628 46.8153 344.201 46.2335C343.827 45.5987 343.48 45.2549 343.16 45.202C341.663 45.202 339.634 46.9476 337.07 50.439C336.802 50.8093 336.375 51.4705 335.788 52.4227C335.253 53.3749 334.907 54.0096 334.746 54.327C334.478 54.6974 334.105 55.5966 333.624 57.0249C333.196 58.4002 332.983 59.2996 332.983 59.7227C332.983 60.8866 333.33 61.4684 334.025 61.4684C334.558 61.4684 335.173 61.2567 335.868 60.8336ZM396.217 67.7369C395.522 67.7369 394.989 67.6312 394.614 67.4195C394.188 67.2608 393.627 66.8905 392.932 66.3086C392.291 65.6738 391.704 64.801 391.169 63.6901C390.688 62.5263 390.448 61.151 390.448 59.564C390.448 58.5589 390.502 57.686 390.608 56.9455C390.768 56.152 390.848 55.6496 390.848 55.4379C390.848 55.1735 390.768 55.0412 390.608 55.0412C389.22 55.0412 386.201 57.5539 381.553 62.5793C381.393 62.685 381.259 62.8173 381.153 62.976C380.512 63.4521 379.925 63.9546 379.39 64.4836C378.589 65.2241 377.922 65.7796 377.387 66.1499C376.906 66.4673 376.371 66.6524 375.784 66.7054C375.41 66.7054 375.009 66.5467 374.582 66.2293L373.701 65.5151C373.434 65.3564 373.194 65.0654 372.98 64.6423C372.765 64.2192 372.659 63.8224 372.659 63.4521V63.214V63.0554L374.502 57.739C375.838 54.8295 376.505 53.1104 376.505 52.5814C376.505 52.4756 376.479 52.4227 376.425 52.4227C375.944 52.3697 375.223 52.793 374.262 53.6922C373.354 54.5387 372.044 55.8876 370.335 57.739L366.73 61.4684C366.303 61.8915 365.153 63.1611 363.284 65.2771C362.108 66.7054 361.495 67.4195 361.441 67.4195C360.265 67.4195 359.198 66.9698 358.236 66.0706C357.329 65.1714 356.874 64.0869 356.874 62.8173C356.874 62.1825 356.98 61.3361 357.194 60.2782C357.409 59.2202 357.649 58.1094 357.915 56.9455C358.022 56.5224 358.13 56.0463 358.236 55.5173C358.396 54.9882 358.557 54.38 358.717 53.6922C358.823 53.1632 358.931 52.5814 359.037 51.9466C359.198 51.3118 359.492 50.4919 359.919 49.4868C360.345 48.4289 360.96 46.974 361.762 45.1226C361.976 44.4349 362.082 43.7207 362.082 42.9802C362.082 42.6099 362.056 42.2661 362.002 41.9487C361.948 41.5783 361.922 41.3403 361.922 41.2346C361.922 40.4411 362.296 39.7799 363.044 39.2509C363.845 38.669 364.726 38.378 365.688 38.378C367.076 38.378 368.118 38.8805 368.813 39.8856C369.508 40.8378 369.855 41.843 369.855 42.9009C369.855 43.8001 369.64 44.6729 369.214 45.5194L368.332 47.6618C368.118 48.1379 367.717 49.0107 367.13 50.2803C366.595 51.4969 366.329 52.2376 366.329 52.502C366.329 52.6607 366.383 52.7401 366.489 52.7401H366.569C366.836 52.7401 367.264 52.4491 367.851 51.8672C369.56 50.2803 371.617 48.6403 374.021 46.9476C376.479 45.202 378.242 44.1705 379.31 43.8531C379.737 43.8531 380.297 44.0647 380.993 44.4878C381.688 44.911 382.301 45.493 382.836 46.2335C383.37 46.9213 383.637 47.6882 383.637 48.5346L383.557 49.1694C383.503 49.3811 383.262 50.2803 382.836 51.8672C382.461 53.4542 382.168 54.38 381.954 54.6444C382.97 53.4806 384.733 52.0523 387.243 50.3596C389.753 48.614 391.596 47.7147 392.771 47.6618C394.534 47.6618 395.682 48.3759 396.217 49.8042C396.752 51.2325 397.124 53.3219 397.339 56.0727C397.553 58.6648 397.846 60.4105 398.22 61.3097C398.326 61.6271 398.701 61.8915 399.342 62.1032C399.983 62.3148 400.49 62.5793 400.864 62.8967C401.291 63.1611 401.506 63.7165 401.506 64.563C401.506 65.7268 400.971 66.5467 399.903 67.0228C398.887 67.4989 397.659 67.7369 396.217 67.7369Z" fill="white"/>
<path d="M56.3291 58.6645C57.3977 55.4074 58.5022 52.1853 59.6425 48.998C60.8254 45.8246 61.9582 42.588 63.0407 39.2888C63.6653 37.3853 64.1831 35.4475 64.594 33.4753C65.0478 31.5168 65.5868 29.5858 66.2113 27.6823C66.4058 27.0902 66.7431 26.6375 67.2236 26.3245C67.7469 26.0252 68.3075 25.9718 68.9055 26.1641C69.9307 26.494 70.6302 26.953 71.004 27.5409C71.3778 28.1287 71.5673 28.7743 71.5728 29.4776C71.5782 30.1807 71.4489 30.9342 71.1853 31.7379C70.9216 32.5415 70.6648 33.3241 70.415 34.0855C70.3595 34.2546 70.2208 34.6777 69.9986 35.3545C69.8192 36.045 69.6191 36.799 69.3982 37.6165C69.1911 38.3915 68.9765 39.1174 68.7544 39.7943C68.5751 40.4848 68.4576 40.9147 68.4021 41.0838L67.7151 43.1777C66.813 45.9272 65.8749 48.6417 64.9013 51.3214C63.9276 54.001 62.9828 56.7369 62.0667 59.5285L61.1924 62.1935C61.123 62.4049 61.0472 62.7078 60.965 63.1022C60.9394 63.4683 60.9479 63.6579 60.9906 63.6718L61.5032 63.8366L78.6456 62.7583C79.0844 62.5723 79.4321 62.5205 79.6882 62.6028C79.9584 62.6431 80.2644 62.7181 80.6061 62.8281C80.8196 62.8968 81.0905 63.0073 81.4182 63.1596C81.76 63.2694 82.0596 63.4359 82.3168 63.659C82.6309 63.8537 82.86 64.091 83.0041 64.3713C83.2049 64.623 83.2429 64.939 83.118 65.3198C82.7986 66.2928 81.9871 66.9669 80.6833 67.3423C79.0804 67.6217 77.4488 67.845 75.7882 68.0121C74.1416 68.1369 72.5084 68.1493 70.8885 68.0488L70.4848 68.1997C68.2541 68.0898 66.0681 68.275 63.9271 68.7554C61.8288 69.2492 59.6728 69.6312 57.4591 69.9009L56.8825 69.7154C55.7292 69.3443 54.9998 68.6888 54.6943 67.7488C54.3888 66.8087 54.3172 65.8036 54.4794 64.7334C54.6555 63.6209 54.9454 62.5218 55.349 61.4357C55.7664 60.3073 56.0931 59.3836 56.3291 58.6645Z" fill="white"/>
<path d="M24.9016 20.8136V20.7863C24.9016 20.7863 24.9016 20.759 24.9016 20.7317C24.9016 20.6499 24.87 20.4861 24.8384 20.2678C24.8384 20.2132 24.8069 20.1859 24.8069 20.1313C24.8069 20.104 24.8069 20.0768 24.8069 20.0768C24.8069 20.0222 24.7753 19.9949 24.7753 19.9403C24.7753 19.913 24.7753 19.8857 24.7437 19.8311C24.7437 19.7766 24.7122 19.7493 24.7122 19.6947C24.7122 19.6401 24.6806 19.6128 24.6806 19.5582C24.6806 19.5037 24.649 19.4764 24.649 19.4218C24.649 19.3672 24.6175 19.2853 24.6175 19.2308C24.6175 19.2035 24.6175 19.1762 24.5859 19.1489C24.5544 19.0397 24.5228 18.9579 24.5228 18.8487C24.5228 18.8214 24.4912 18.7941 24.4912 18.7668C24.4597 18.685 24.4597 18.6031 24.4281 18.5212C24.4281 18.4939 24.3965 18.4393 24.3965 18.4121C24.365 18.3302 24.365 18.2483 24.3334 18.1664C24.3334 18.1392 24.3019 18.0846 24.3019 18.0573C24.2703 17.9754 24.2387 17.8935 24.2387 17.8117C24.2387 17.7844 24.2072 17.7298 24.2072 17.7025C24.1756 17.5934 24.144 17.4842 24.1125 17.4023C24.1125 17.375 24.1125 17.3477 24.0809 17.3205C23.9862 17.0475 23.8915 16.7746 23.7968 16.5017C23.7968 16.4745 23.7653 16.4472 23.7653 16.4199C23.7337 16.3107 23.6706 16.2016 23.639 16.0924C23.6075 16.0651 23.6075 16.0105 23.5759 15.9832C23.5443 15.8741 23.4812 15.7649 23.4496 15.6558C23.4181 15.6012 23.4181 15.5739 23.3865 15.5193C23.3234 15.4101 23.2918 15.301 23.2287 15.1918C23.1971 15.1645 23.1971 15.1099 23.1656 15.0827C23.1024 14.9462 23.0393 14.8098 22.9762 14.6733C22.9762 14.646 22.9446 14.646 22.9446 14.6187C22.8815 14.455 22.7868 14.2912 22.6921 14.1548C22.6921 14.1548 22.6921 14.1275 22.6606 14.1275C22.5974 13.9911 22.5027 13.8546 22.4396 13.6909C22.4081 13.6363 22.3765 13.609 22.3765 13.5544C22.3134 13.4452 22.2502 13.3361 22.1871 13.2269C22.1556 13.1723 22.124 13.1178 22.0924 13.0632C22.0293 12.954 21.9662 12.8449 21.903 12.7357C21.8715 12.6811 21.8399 12.6265 21.8084 12.572C21.7452 12.4628 21.6505 12.3536 21.5874 12.2445C21.5558 12.1899 21.5243 12.1626 21.4927 12.108C21.398 11.9716 21.3033 11.8351 21.2087 11.6987C21.2087 11.6714 21.1771 11.6714 21.1771 11.6441C21.0508 11.4804 20.9246 11.3439 20.8299 11.1802C20.7983 11.1529 20.7668 11.0983 20.7352 11.071C20.6405 10.9618 20.5458 10.8527 20.4511 10.7162C20.4196 10.6616 20.3564 10.6071 20.3249 10.5525C20.2302 10.4433 20.1671 10.3615 20.0724 10.2523C20.0092 10.1977 19.9777 10.1431 19.9146 10.0886C19.8199 9.97939 19.7252 9.89752 19.6305 9.81565C19.5674 9.76107 19.5358 9.7065 19.4727 9.65192C19.378 9.54275 19.2833 9.46088 19.157 9.35172C19.0939 9.29714 19.0623 9.26985 18.9992 9.21527C18.8414 9.07882 18.6836 8.91508 18.5258 8.77863C12.9391 3.94827 4.92201 3.21143 4.57481 3.18414C4.51168 3.18414 4.44856 3.18414 4.38543 3.18414C4.35387 3.18414 4.3223 3.18414 4.29074 3.18414C4.25917 3.18414 4.19605 3.21143 4.16449 3.21143C4.13292 3.21143 4.10136 3.21143 4.0698 3.23872C4.00667 3.26601 3.97511 3.26601 3.94354 3.2933C3.91198 3.2933 3.91198 3.32059 3.88042 3.32059C3.81729 3.34788 3.75416 3.40246 3.69104 3.45704C3.47009 3.64808 3.34384 3.94827 3.37541 4.22117C3.40697 4.52136 4.25918 11.4531 9.84587 16.2834C15.4326 21.0865 23.4496 21.8506 23.7968 21.8779C23.8284 21.8779 23.86 21.8779 23.8915 21.8779C24.1756 21.8779 24.4597 21.7687 24.6806 21.605C24.8384 21.3594 24.9331 21.0865 24.9016 20.8136Z" fill="white"/>
<path d="M8.20645 17.5938C7.89082 17.3209 7.60675 17.048 7.32268 16.7751C3.34571 17.8394 0.56814 19.777 0.410324 19.8862C0.157817 20.0772 0 20.3501 0 20.623C0 20.8959 0.157817 21.1688 0.410324 21.3598C0.631267 21.5236 5.87077 25.1805 12.4675 25.1805C15.7185 25.1805 18.6855 24.2799 20.8318 23.352C17.6754 22.7244 12.3412 21.1688 8.20645 17.5938Z" fill="white"/>
<path d="M27.0624 22.5393H41.3931V50.4681H27.0624V22.5393Z" fill="white"/>
<path d="M41.3931 52.1917V72.1479C41.3931 72.6154 40.9073 73.0091 40.3304 73.0091H28.1251C27.5482 73.0091 27.0624 72.6154 27.0624 72.1479V52.1917H41.3931Z" fill="white"/>
<path d="M27.058 20.8174V0.861239C27.058 0.393709 27.5438 0 28.1207 0H40.326C40.9029 0 41.3887 0.393709 41.3887 0.861239V20.8174H27.058Z" fill="white"/>
<path d="M12.7426 52.5455V36.0064C12.7426 35.4765 13.2272 35.0303 13.8027 35.0303H22.8286C23.4041 35.0303 23.8887 35.4765 23.8887 36.0064V52.5455H12.7426Z" fill="white"/>
<path d="M23.8892 54.1382V72.2565C23.8892 72.7935 23.4045 73.2458 22.8291 73.2458H13.8032C13.2277 73.2458 12.7431 72.7935 12.7431 72.2565V54.1382H23.8892Z" fill="white"/>
</svg>
