<svg width="249" height="29" viewBox="0 0 249 29" fill="none" xmlns="http://www.w3.org/2000/svg">
<path d="M25.6495 24.2342H34.398V27.6591H21.4056V1.78613H25.6495V24.2342ZM54.6621 7.14685V27.6591H50.4182V25.2393C49.7481 26.0831 48.8671 26.7532 47.7751 27.2496C46.7079 27.7211 45.5662 27.9569 44.3502 27.9569C42.7369 27.9569 41.2851 27.6218 39.9946 26.9517C38.7289 26.2817 37.7237 25.2889 36.9792 23.9736C36.2594 22.6582 35.8996 21.0698 35.8996 19.2085V7.14685H40.1063V18.5756C40.1063 20.4121 40.5654 21.8268 41.4837 22.8195C42.4019 23.7874 43.6552 24.2714 45.2436 24.2714C46.8319 24.2714 48.0853 23.7874 49.0036 22.8195C49.9466 21.8268 50.4182 20.4121 50.4182 18.5756V7.14685H54.6621ZM66.5158 17.4216L75.9715 27.6591H70.2385L62.6442 18.8362V27.6591H58.4002V0.110901H62.6442V16.1186L70.0896 7.14685H75.9715L66.5158 17.4216ZM95.9518 16.9004C95.9518 17.6698 95.9024 18.3646 95.8029 18.9851H80.1302C80.2541 20.6231 80.8626 21.9385 81.9544 22.9312C83.0461 23.924 84.3863 24.4203 85.9749 24.4203C88.258 24.4203 89.8716 23.4648 90.8145 21.5538H95.3934C94.7727 23.44 93.6437 24.9911 92.0057 26.2072C90.3928 27.3985 88.3825 27.9941 85.9749 27.9941C84.014 27.9941 82.2522 27.5598 80.6886 26.6912C79.1502 25.7977 77.9338 24.5568 77.0404 22.9684C76.172 21.3553 75.7374 19.4939 75.7374 17.3843C75.7374 15.2748 76.1591 13.4259 77.0031 11.8375C77.8715 10.2243 79.0757 8.98337 80.6142 8.11476C82.1777 7.24615 83.9646 6.8118 85.9749 6.8118C87.9107 6.8118 89.6354 7.23369 91.1495 8.07753C92.6637 8.92137 93.842 10.1126 94.6861 11.6513C95.5302 13.1653 95.9518 14.915 95.9518 16.9004ZM91.5218 15.5602C91.4967 13.9967 90.9383 12.7433 89.8466 11.8003C88.7548 10.8572 87.4017 10.3856 85.7888 10.3856C84.3247 10.3856 83.0712 10.8572 82.0288 11.8003C80.9865 12.7186 80.3658 13.9718 80.1675 15.5602H91.5218Z" fill="white"/>
<path d="M8.61429 9.24317V9.23351C8.61429 9.23351 8.61429 9.22385 8.61429 9.21425C8.61429 9.18526 8.60333 9.12741 8.59245 9.05024C8.59245 9.03091 8.5815 9.02132 8.5815 9.00199C8.5815 8.99232 8.5815 8.98273 8.5815 8.98273C8.5815 8.9634 8.57061 8.95373 8.57061 8.93447C8.57061 8.92481 8.57061 8.91515 8.55966 8.89589C8.55966 8.87656 8.54878 8.86696 8.54878 8.84764C8.54878 8.82838 8.53783 8.81871 8.53783 8.79946C8.53783 8.78013 8.52694 8.77046 8.52694 8.7512C8.52694 8.73187 8.51599 8.70295 8.51599 8.68369C8.51599 8.67403 8.51599 8.66436 8.50511 8.6547C8.49416 8.61611 8.48327 8.58719 8.48327 8.5486C8.48327 8.53894 8.47232 8.52934 8.47232 8.51968C8.46144 8.49076 8.46144 8.46176 8.45056 8.43284C8.45056 8.42317 8.4396 8.40392 8.4396 8.39425C8.42872 8.36533 8.42872 8.33641 8.41777 8.30748C8.41777 8.29782 8.40689 8.27849 8.40689 8.2689C8.39593 8.2399 8.38505 8.21098 8.38505 8.18206C8.38505 8.17239 8.3741 8.15313 8.3741 8.14347C8.36322 8.10488 8.35226 8.06629 8.34138 8.03737C8.34138 8.02771 8.34138 8.01804 8.33043 8.00838C8.29771 7.91194 8.26492 7.81551 8.2322 7.71901C8.2322 7.70934 8.22125 7.69975 8.22125 7.69008C8.21037 7.6515 8.18853 7.61291 8.17758 7.57432C8.1667 7.56466 8.1667 7.5454 8.15575 7.53573C8.14486 7.49715 8.12303 7.45856 8.11208 7.41997C8.10119 7.40071 8.10119 7.39105 8.09024 7.37172C8.0684 7.33313 8.05752 7.29454 8.03569 7.25596C8.02473 7.24636 8.02473 7.22703 8.01385 7.21737C7.99202 7.16919 7.97018 7.12094 7.94835 7.07268C7.94835 7.06302 7.93739 7.06302 7.93739 7.05343C7.91556 6.99551 7.88284 6.93766 7.85012 6.88941C7.85012 6.88941 7.85012 6.87975 7.83917 6.87975C7.81734 6.83157 7.78462 6.78331 7.76278 6.7254C7.75183 6.70614 7.74095 6.69647 7.74095 6.67722C7.71911 6.63863 7.69728 6.60004 7.67544 6.56145C7.66449 6.54212 7.65361 6.52287 7.64265 6.50354C7.62082 6.46495 7.59898 6.42636 7.57715 6.38778C7.56627 6.36852 7.55531 6.34919 7.54443 6.32993C7.5226 6.29134 7.48981 6.25275 7.46797 6.21417C7.45709 6.19484 7.44614 6.18524 7.43525 6.16592C7.40247 6.11766 7.36975 6.06948 7.33696 6.02123C7.33696 6.01156 7.32608 6.01156 7.32608 6.0019C7.28241 5.94405 7.23874 5.8958 7.20602 5.83796C7.19507 5.82829 7.18419 5.80903 7.17323 5.79937C7.14049 5.76078 7.10773 5.72219 7.07498 5.67394C7.06407 5.65468 7.04223 5.63536 7.03132 5.6161C6.99856 5.57751 6.97673 5.54852 6.94398 5.51C6.92214 5.49067 6.91123 5.47141 6.8894 5.45208C6.85664 5.41349 6.82389 5.38457 6.79114 5.35565C6.76931 5.33632 6.75839 5.31706 6.73656 5.29773C6.7038 5.25915 6.67106 5.23022 6.62739 5.19163C6.60555 5.17231 6.59463 5.16271 6.5728 5.14338C6.51822 5.09513 6.46363 5.03729 6.40905 4.98903C4.47674 3.28159 1.70383 3.02114 1.58374 3.01155C1.56191 3.01155 1.54007 3.01155 1.51824 3.01155C1.50732 3.01155 1.4964 3.01155 1.48549 3.01155C1.47457 3.01155 1.45274 3.02114 1.44182 3.02114C1.4309 3.02114 1.41999 3.02114 1.40907 3.03081C1.38723 3.04047 1.37632 3.04047 1.3654 3.05014C1.35449 3.05014 1.35449 3.05973 1.34357 3.05973C1.32174 3.0694 1.2999 3.08873 1.27807 3.10798C1.20165 3.17549 1.15798 3.28159 1.1689 3.3781C1.17981 3.48419 1.47458 5.93439 3.40688 7.64183C5.33918 9.33961 8.11208 9.60972 8.2322 9.61938C8.24309 9.61938 8.25404 9.61938 8.26492 9.61938C8.36322 9.61938 8.46144 9.5808 8.53783 9.52288C8.59245 9.43611 8.62517 9.33961 8.61429 9.24317Z" fill="white"/>
<path d="M2.83842 8.1048C2.72924 8.00837 2.63099 7.91186 2.53274 7.81543C1.1572 8.19164 0.196506 8.87655 0.141921 8.91514C0.0545852 8.98265 0 9.07909 0 9.17559C0 9.27202 0.0545852 9.36853 0.141921 9.43604C0.21834 9.49388 2.03056 10.7865 4.31221 10.7865C5.43666 10.7865 6.46286 10.4682 7.20519 10.1402C6.11352 9.91835 4.26854 9.36853 2.83842 8.1048Z" fill="white"/>
<path d="M9.36157 9.85376H14.3182V19.726H9.36157V9.85376Z" fill="white"/>
<path d="M14.3182 20.335V27.3891C14.3182 27.5543 14.1501 27.6935 13.9506 27.6935H9.72912C9.5296 27.6935 9.36157 27.5543 9.36157 27.3891V20.335H14.3182Z" fill="white"/>
<path d="M9.36084 9.24489V2.19076C9.36084 2.02552 9.52886 1.88635 9.72839 1.88635H13.9499C14.1494 1.88635 14.3174 2.02552 14.3174 2.19076V9.24489H9.36084Z" fill="white"/>
<path d="M4.40784 20.4605V14.6143C4.40784 14.427 4.57545 14.2693 4.7745 14.2693H7.89631C8.09541 14.2693 8.263 14.427 8.263 14.6143V20.4605H4.40784Z" fill="white"/>
<path d="M8.263 21.0233V27.4277C8.263 27.6176 8.09541 27.7774 7.89631 27.7774H4.7745C4.57545 27.7774 4.40784 27.6176 4.40784 27.4277V21.0233H8.263Z" fill="white"/>
<path d="M117.277 2.35313V4.51231H105.811V14.2286H115.491V16.3878H105.811V28.375H103.206V2.35313H117.277ZM127.67 28.6728C125.759 28.6728 124.034 28.2509 122.496 27.4071C120.982 26.5384 119.778 25.3223 118.885 23.7588C118.016 22.1704 117.582 20.3215 117.582 18.2119C117.582 16.1024 118.028 14.2658 118.922 12.7023C119.815 11.1139 121.031 9.89787 122.57 9.05403C124.109 8.18542 125.833 7.75108 127.745 7.75108C129.656 7.75108 131.38 8.18542 132.919 9.05403C134.483 9.89787 135.699 11.1139 136.568 12.7023C137.461 14.2658 137.908 16.1024 137.908 18.2119C137.908 20.2967 137.461 22.1332 136.568 23.7216C135.674 25.3099 134.446 26.5384 132.882 27.4071C131.319 28.2509 129.581 28.6728 127.67 28.6728ZM127.67 26.4019C129.01 26.4019 130.251 26.1041 131.393 25.5085C132.534 24.888 133.453 23.9698 134.148 22.7537C134.867 21.5128 135.227 19.9988 135.227 18.2119C135.227 16.425 134.88 14.9235 134.185 13.7074C133.49 12.4666 132.571 11.5483 131.43 10.9526C130.288 10.3321 129.048 10.0219 127.708 10.0219C126.367 10.0219 125.126 10.3321 123.985 10.9526C122.843 11.5483 121.924 12.4666 121.23 13.7074C120.56 14.9235 120.225 16.425 120.225 18.2119C120.225 19.9988 120.56 21.5128 121.23 22.7537C121.924 23.9698 122.831 24.888 123.948 25.5085C125.089 26.1041 126.33 26.4019 127.67 26.4019ZM142.472 11.6599C143.042 10.3942 143.911 9.41392 145.078 8.71899C146.269 8.02405 147.721 7.67662 149.433 7.67662V10.3942H148.726C146.839 10.3942 145.325 10.903 144.184 11.9205C143.042 12.938 142.472 14.6381 142.472 17.0207V28.375H139.866V8.04889H142.472V11.6599ZM149.37 18.1747C149.37 16.09 149.792 14.2658 150.636 12.7023C151.479 11.1139 152.633 9.89787 154.098 9.05403C155.587 8.18542 157.262 7.75108 159.124 7.75108C160.911 7.75108 162.524 8.18542 163.963 9.05403C165.402 9.92264 166.458 11.0519 167.128 12.4417V0.826813H169.734V28.375H167.128V23.8332C166.507 25.2479 165.49 26.4143 164.075 27.3326C162.66 28.2261 160.997 28.6728 159.087 28.6728C157.225 28.6728 155.55 28.2384 154.061 27.3698C152.596 26.5012 151.442 25.2727 150.599 23.6843C149.78 22.0959 149.37 20.2594 149.37 18.1747ZM167.128 18.2119C167.128 16.5739 166.793 15.1345 166.122 13.8936C165.452 12.6527 164.534 11.6972 163.368 11.0271C162.226 10.357 160.96 10.0219 159.57 10.0219C158.131 10.0219 156.84 10.3446 155.699 10.9898C154.557 11.6351 153.651 12.5782 152.981 13.8191C152.336 15.0352 152.013 16.4871 152.013 18.1747C152.013 19.8375 152.336 21.3018 152.981 22.5675C153.651 23.8084 154.557 24.7639 155.699 25.434C156.84 26.0793 158.131 26.4019 159.57 26.4019C160.96 26.4019 162.226 26.0669 163.368 25.3968C164.534 24.7267 165.452 23.7712 166.122 22.5303C166.793 21.2894 167.128 19.8499 167.128 18.2119ZM182.57 7.67662C184.108 7.67662 185.486 7.99928 186.702 8.64453C187.943 9.28978 188.911 10.2825 189.606 11.6227C190.325 12.938 190.685 14.5513 190.685 16.4622V28.375H188.117V16.7601C188.117 14.5513 187.558 12.8636 186.441 11.6972C185.349 10.5307 183.848 9.94748 181.937 9.94748C179.976 9.94748 178.412 10.568 177.246 11.8088C176.079 13.0497 175.497 14.8739 175.497 17.2812V28.375H172.891V0.826813H175.497V11.511C176.142 10.2949 177.084 9.35185 178.326 8.68176C179.592 8.01167 181.006 7.67662 182.57 7.67662ZM192.465 18.1747C192.465 16.09 192.875 14.2658 193.694 12.7023C194.537 11.1139 195.691 9.89787 197.156 9.05403C198.645 8.18542 200.32 7.75108 202.181 7.75108C204.117 7.75108 205.78 8.1978 207.17 9.09126C208.584 9.98471 209.602 11.1264 210.222 12.5162V8.04889H212.828V28.375H210.222V23.8705C209.577 25.2603 208.547 26.4143 207.133 27.3326C205.742 28.2261 204.08 28.6728 202.144 28.6728C200.307 28.6728 198.645 28.2384 197.156 27.3698C195.691 26.5012 194.537 25.2727 193.694 23.6843C192.875 22.0959 192.465 20.2594 192.465 18.1747ZM210.222 18.2119C210.222 16.5739 209.887 15.1345 209.217 13.8936C208.547 12.6527 207.629 11.6972 206.462 11.0271C205.321 10.357 204.055 10.0219 202.665 10.0219C201.226 10.0219 199.935 10.3446 198.794 10.9898C197.652 11.6351 196.746 12.5782 196.076 13.8191C195.43 15.0352 195.108 16.4871 195.108 18.1747C195.108 19.8375 195.43 21.3018 196.076 22.5675C196.746 23.8084 197.652 24.7639 198.794 25.434C199.935 26.0793 201.226 26.4019 202.665 26.4019C204.055 26.4019 205.321 26.0669 206.462 25.3968C207.629 24.7267 208.547 23.7712 209.217 22.5303C209.887 21.2894 210.222 19.8499 210.222 18.2119ZM240.183 7.67662C242.566 7.67662 244.502 8.43355 245.991 9.94748C247.504 11.4366 248.262 13.6081 248.262 16.4622V28.375H245.693V16.7601C245.693 14.5513 245.159 12.8636 244.092 11.6972C243.025 10.5307 241.573 9.94748 239.736 9.94748C237.825 9.94748 236.299 10.5803 235.158 11.8461C234.016 13.1118 233.445 14.9483 233.445 17.3557V28.375H230.876V16.7601C230.876 14.5513 230.342 12.8636 229.276 11.6972C228.208 10.5307 226.744 9.94748 224.883 9.94748C222.971 9.94748 221.445 10.5803 220.304 11.8461C219.162 13.1118 218.591 14.9483 218.591 17.3557V28.375H215.986V8.04889H218.591V11.5483C219.236 10.2825 220.155 9.32701 221.346 8.68176C222.538 8.01167 223.865 7.67662 225.33 7.67662C227.091 7.67662 228.63 8.09851 229.946 8.94235C231.286 9.78619 232.254 11.0271 232.849 12.6651C233.395 11.0519 234.326 9.82342 235.641 8.97958C236.982 8.11097 238.495 7.67662 240.183 7.67662Z" fill="white"/>
</svg>
