<svg width="17" height="37" viewBox="0 0 17 37" fill="none" xmlns="http://www.w3.org/2000/svg">
<path d="M16.4859 14.6736C14.5388 6.10192 9.94617 3.28529 9.45284 2.20767C8.91017 1.44763 8.3228 0 8.3228 0L8.31509 0.0755417V0.0955833H8.31355C8.31081 0.115549 8.30875 0.135602 8.30738 0.155708V0.178833H8.3043L8.30122 0.218917V0.259H8.29659C8.29505 0.271333 8.29505 0.28675 8.29196 0.297542V0.329917H8.28888C8.28888 0.340708 8.28888 0.353042 8.2858 0.362292V0.393125H8.28271L8.27963 0.442458V0.445542L8.26576 0.522625V0.534958H8.26267L8.25805 0.553458V0.579667H8.25342V0.613583H8.24572V0.641333H8.23801V0.673708H8.23184V0.703H8.22567V0.729208H8.21642V0.750792H8.21026V0.778542H8.20409V0.800125H8.19638V0.820167H8.19176V0.843292H8.18559L8.18405 0.849458V0.864875H8.17942L8.17788 0.874125V0.883375H8.1748C8.17318 0.888377 8.17214 0.893551 8.17171 0.898792L8.1563 0.931167V0.93425C8.15322 0.937458 8.15063 0.941093 8.14859 0.945042V0.957375H8.14242V0.969708H8.13471V0.982042H8.13009V0.997458H8.12084V1.01904H8.11467V1.02521H8.10851V1.03754H8.10234V1.0545H8.09617V1.06683H8.08692V1.08379H8.08076V1.09613H8.07305V1.10846H8.06842V1.12387H8.06071V1.13621H8.05455V1.14546H8.04838V1.15779H8.03913V1.17167H8.03296V1.18092H8.02526V1.19325H8.01909V1.21021H8.01138V1.21637H8.00676V1.22871H7.99751V1.23487H7.99134V1.25029H7.98517V1.25646H7.97901V1.26879H7.9713V1.27804H7.96667L7.96359 1.28421V1.29037H7.96051L7.95742 1.29654V1.29808H7.95588C7.95478 1.30215 7.95266 1.30586 7.94971 1.30887V1.3135H7.94817L7.92967 1.34125V1.34279C7.92659 1.34587 7.91888 1.35204 7.9158 1.35821V1.36129H7.91426L7.90963 1.36592V1.37054H7.90655L7.90192 1.37517V1.37671H7.90038L7.89576 1.38287V1.38904H7.89113L7.88805 1.39213V1.39521H7.88496C7.88496 1.39829 7.88188 1.39829 7.88188 1.39983V1.40446H7.87572L7.87263 1.40908V1.41833H7.86801V1.4245H7.86184V1.43375H7.85567V1.44608H7.84796V1.43375H7.84026V1.43992H7.83409V1.44917H7.82638V1.4615H7.81867V1.46767H7.81251V1.47692H7.80634V1.48308H7.80017V1.49542H7.79092V1.50158H7.78476V1.51083H7.77705V1.517H7.77088V1.52471H7.76317V1.54013H7.76009V1.54629H7.75084V1.554H7.74467V1.55708H7.73851V1.56325H7.7308V1.57867H7.72463V1.58483H7.71692V1.591H7.71076V1.60025H7.70305V1.60642H7.69534V1.61258H7.68917V1.61875H7.68301V1.63417H7.67684V1.64188H7.66759V1.64804H7.66142V1.65421H7.65371V1.66346H7.64755V1.66962H7.63984V1.68042H7.63367V1.68658H7.62442V1.69583H7.62134V1.702H7.61517V1.70817H7.60746V1.71433H7.6013V1.72358H7.59359V1.72975H7.58896L7.58742 1.73283V1.73592H7.58434L7.57817 1.74208L7.57201 1.74671V1.75596H7.56584V1.76367H7.55967V1.76983H7.55351V1.776H7.54888L7.54426 1.78062V1.78525H7.54117L7.53809 1.78833V1.79296H7.53501C7.5273 1.80221 7.52421 1.80838 7.51342 1.81762C7.48532 1.83679 7.459 1.85847 7.4348 1.88237L7.40088 1.90858V1.91012H7.39934C7.37438 1.93045 7.3492 1.95049 7.3238 1.97025V1.97179L7.20971 2.06737V2.06583H7.20663C7.11876 2.13829 7.02626 2.22 6.91988 2.31096V2.3125H6.91834C6.6578 2.54067 6.34792 2.83358 6.00105 3.18817L5.97792 3.21129L5.97176 3.21746C3.87509 5.38658 0.571296 9.90675 0.222879 17.2112C0.192046 17.8155 0.198213 18.4029 0.232129 18.9748V18.9887C0.400171 21.867 1.30359 24.3244 2.43363 26.3209V26.3224C2.8838 27.1179 3.36942 27.841 3.86121 28.4885V28.49C5.56013 30.7331 7.29451 32.062 7.73696 32.3843C8.41684 33.9614 8.35363 36.6685 8.35363 36.6685L9.34647 37C9.34647 37 9.14451 34.3776 9.42817 33.1119C9.51605 32.7157 9.72417 32.3781 9.96622 32.0913C10.3957 31.7853 10.806 31.4532 11.1949 31.097C11.2227 31.0677 11.2381 31.0415 11.2628 31.0137C13.6076 28.8276 17.9875 23.4441 16.4859 14.6736Z" fill="white"/>
</svg>
