<svg width="32" height="37" viewBox="0 0 32 37" fill="none" xmlns="http://www.w3.org/2000/svg">
<path d="M16 36.2857C15.5215 36.2857 15.0358 36.1572 14.6143 35.9143L10.2072 33.3072C9.55005 32.9357 9.87148 32.8072 10.0858 32.7357C10.9643 32.4286 11.1429 32.3643 12.0786 31.8286C12.1786 31.7714 12.3072 31.7929 12.4072 31.8572L15.7929 33.8643C15.9143 33.9357 16.0858 33.9357 16.2001 33.8643L29.3929 26.25C29.5143 26.1786 29.5929 26.0357 29.5929 25.8929V10.6643C29.5929 10.5143 29.5143 10.3786 29.3858 10.3L16.2001 2.69288C16.0786 2.62145 15.9143 2.62145 15.7929 2.69288L2.61433 10.3072C2.48576 10.3786 2.40719 10.5214 2.40719 10.6714V25.8929C2.40719 26.0357 2.48576 26.1786 2.61433 26.2429L6.22862 28.3286C8.19291 29.3072 9.39291 28.1572 9.39291 26.9929V11.9643C9.39291 11.75 9.56433 11.5857 9.77862 11.5857H11.45C11.6572 11.5857 11.8358 11.75 11.8358 11.9643V27C11.8358 29.6143 10.4072 31.1143 7.92862 31.1143C7.16434 31.1143 6.56433 31.1143 4.89291 30.2857L1.43576 28.2929C0.57862 27.8 0.0500488 26.8786 0.0500488 25.8857V10.6643C0.0500488 9.67859 0.57862 8.75002 1.43576 8.25716L14.6143 0.642878C15.4501 0.171449 16.5572 0.171449 17.3858 0.642878L30.5786 8.26431C31.4358 8.75716 31.9643 9.67859 31.9643 10.6714V25.8929C31.9643 26.8786 31.4358 27.8 30.5786 28.3L17.3858 35.9143C16.9643 36.1572 16.4858 36.2857 16 36.2857ZM26.65 21.2786C26.65 18.4286 24.7215 17.6714 20.6715 17.1357C16.5715 16.5929 16.1572 16.3143 16.1572 15.3572C16.1572 14.5643 16.5072 13.5072 19.5429 13.5072C22.25 13.5072 23.25 14.0929 23.6643 15.9214C23.7 16.0929 23.8572 16.2214 24.0358 16.2214H25.75C25.8572 16.2214 25.9572 16.1786 26.0286 16.1C26.1 16.0214 26.1358 15.9143 26.1286 15.8072C25.8643 12.6572 23.7715 11.1929 19.5429 11.1929C15.7786 11.1929 13.5358 12.7786 13.5358 15.4429C13.5358 18.3286 15.7715 19.1286 19.3786 19.4857C23.7 19.9072 24.0358 20.5429 24.0358 21.3929C24.0358 22.8643 22.85 23.4929 20.0715 23.4929C16.5786 23.4929 15.8143 22.6143 15.5572 20.8786C15.5286 20.6929 15.3715 20.5572 15.1786 20.5572H13.4715C13.2572 20.5572 13.0929 20.7286 13.0929 20.9357C13.0929 23.1572 14.3 25.8072 20.0786 25.8072C24.25 25.8 26.65 24.15 26.65 21.2786Z" fill="white"/>
</svg>
