<svg width="32" height="29" viewBox="0 0 32 29" fill="none" xmlns="http://www.w3.org/2000/svg">
<path d="M16 11.3824C14.427 11.3824 13.146 12.6634 13.146 14.2364C13.146 15.8094 14.427 17.0904 16 17.0904C17.573 17.0904 18.854 15.8094 18.854 14.2364C18.854 12.6634 17.573 11.3824 16 11.3824ZM8.01 19.9084L7.38 19.7524C2.692 18.5644 0 16.5544 0 14.2314C0 11.9084 2.693 9.89836 7.38 8.71036L8.01 8.55436L8.187 9.17936C8.66257 10.8164 9.27058 12.412 10.005 13.9504L10.14 14.2314L10.005 14.5174C9.26904 16.0551 8.66099 17.6508 8.187 19.2884L8.01 19.9084ZM7.089 10.1684C3.526 11.1684 1.339 12.7044 1.339 14.2314C1.339 15.7584 3.527 17.2884 7.089 18.2944C7.52565 16.907 8.05278 15.5498 8.667 14.2314C8.05192 12.9133 7.52477 11.556 7.089 10.1684V10.1684ZM23.99 19.9084L23.813 19.2834C23.3383 17.6477 22.7302 16.0537 21.995 14.5174L21.86 14.2314L21.995 13.9454C22.731 12.4076 23.339 10.8119 23.813 9.17436L23.99 8.55436L24.62 8.71036C29.308 9.89836 32 11.9084 32 14.2314C32 16.5544 29.307 18.5644 24.62 19.7524L23.99 19.9084ZM23.333 14.2314C23.9493 15.5489 24.4764 16.9063 24.911 18.2944C28.479 17.2894 30.661 15.7584 30.661 14.2314C30.661 12.7044 28.473 11.1744 24.911 10.1684C24.4733 11.5554 23.9462 12.9125 23.333 14.2314ZM7.078 10.1634L6.901 9.53836C5.583 4.89236 5.984 1.55936 8 0.397362C9.979 -0.743638 13.151 0.605362 16.479 4.02236L16.932 4.48636L16.479 4.95036C15.2972 6.17998 14.2173 7.50368 13.25 8.90836L13.068 9.16336L12.755 9.18936C11.0535 9.32367 9.36563 9.59556 7.708 10.0024L7.078 10.1634ZM9.609 1.32536C9.25 1.32536 8.932 1.39836 8.666 1.55436C7.343 2.32036 7.109 4.97636 8.02 8.55936C9.44145 8.2414 10.8822 8.01692 12.333 7.88736C13.1683 6.69775 14.0816 5.56492 15.067 4.49636C12.989 2.47036 11.02 1.32436 9.609 1.32436V1.32536ZM22.396 28.4704C22.391 28.4704 22.391 28.4704 22.396 28.4704C20.495 28.4704 18.052 27.0434 15.521 24.4394L15.068 23.9754L15.521 23.5114C16.7028 22.2817 17.7827 20.958 18.75 19.5534L18.927 19.2984L19.24 19.2674C20.9437 19.1376 22.6336 18.8656 24.292 18.4544L24.922 18.2984L25.099 18.9234C26.417 23.5694 26.016 26.8974 24 28.0584C23.5126 28.3385 22.9581 28.4806 22.396 28.4694V28.4704ZM16.932 23.9654C19.01 25.9914 20.979 27.1374 22.39 27.1374H22.395C22.749 27.1374 23.067 27.0594 23.333 26.9084C24.656 26.1424 24.896 23.4864 23.979 19.9034C22.5578 20.2217 21.1169 20.4445 19.666 20.5704C18.8308 21.7616 17.9174 22.8961 16.932 23.9664V23.9654ZM24.922 10.1634L24.292 10.0024C22.6324 9.59691 20.943 9.32504 19.24 9.18936L18.927 9.16336L18.75 8.90836C17.7827 7.50368 16.7028 6.17998 15.521 4.95036L15.068 4.48636L15.521 4.02236C18.849 0.605362 22.021 -0.743638 24 0.397362C26.016 1.55836 26.417 4.89236 25.099 9.53836L24.922 10.1634ZM19.667 7.88736C21.1178 8.01656 22.5586 8.24105 23.98 8.55936C24.897 4.97636 24.657 2.31936 23.334 1.55436C22.016 0.794362 19.537 1.96036 16.933 4.49736C17.9157 5.56822 18.8289 6.70086 19.667 7.88836V7.88736ZM9.609 28.4704C9.046 28.4804 8.489 28.3404 8 28.0594C5.984 26.8984 5.583 23.5694 6.901 18.9244L7.078 18.2994L7.708 18.4554C9.25 18.8464 10.948 19.1164 12.755 19.2684L13.068 19.2994L13.245 19.5544C14.2123 20.959 15.2922 22.2827 16.474 23.5124L16.927 23.9764L16.474 24.4404C13.948 27.0444 11.505 28.4714 9.609 28.4714V28.4704ZM8.021 19.9034C7.104 23.4864 7.344 26.1434 8.667 26.9084C9.985 27.6584 12.459 26.5024 15.068 23.9654C14.0826 22.8951 13.1692 21.7606 12.334 20.5694C10.883 20.4439 9.44211 20.221 8.021 19.9024V19.9034ZM16 20.7414C14.901 20.7414 13.776 20.6944 12.646 20.6004L12.333 20.5744L12.151 20.3144C11.5127 19.3972 10.9132 18.4537 10.354 17.4864C9.79365 16.5189 9.27419 15.5284 8.797 14.5174L8.662 14.2314L8.797 13.9454C9.75303 11.9237 10.8749 9.98478 12.151 8.14836L12.333 7.88836L12.646 7.86236C14.878 7.67436 17.122 7.67436 19.354 7.86236L19.667 7.88836L19.849 8.14836C21.1268 9.98373 22.2487 11.9228 23.203 13.9454L23.338 14.2314L23.203 14.5174C22.2506 16.5409 21.1286 18.4802 19.849 20.3144L19.667 20.5744L19.354 20.6004C18.2384 20.6937 17.1195 20.7408 16 20.7414V20.7414ZM13.073 19.2934C15.042 19.4444 16.958 19.4444 18.932 19.2934C20.0329 17.6813 21.0113 15.9889 21.859 14.2304C21.0149 12.469 20.0346 10.7762 18.927 9.16736C16.9786 9.01636 15.0214 9.01636 13.073 9.16736C11.9646 10.7757 10.9843 12.4685 10.141 14.2304C10.9889 15.9897 11.9691 17.6823 13.073 19.2934V19.2934Z" fill="white"/>
</svg>
