<svg width="25" height="21" viewBox="0 0 25 21" fill="none" xmlns="http://www.w3.org/2000/svg">
<path d="M25 2.5501C24.0806 2.94677 23.0802 3.23226 22.0496 3.34345C23.1196 2.70767 23.9208 1.70325 24.303 0.518627C23.299 1.11601 22.1991 1.53491 21.0522 1.75674C20.5728 1.24414 19.993 0.835788 19.3489 0.557115C18.7049 0.278442 18.0104 0.135425 17.3086 0.136975C14.4694 0.136975 12.186 2.43891 12.186 5.26373C12.186 5.66041 12.2341 6.05708 12.3122 6.43873C8.06093 6.21635 4.26932 4.18489 1.74859 1.07458C1.28928 1.85926 1.04859 2.75272 1.05156 3.66199C1.05156 5.44103 1.95589 7.00971 3.33494 7.93228C2.52225 7.90027 1.72859 7.67684 1.01851 7.28017V7.34328C1.01851 9.83453 2.77911 11.8991 5.12559 12.3739C4.68501 12.4883 4.23178 12.5469 3.77659 12.5482C3.4431 12.5482 3.12763 12.5151 2.80916 12.47C3.45812 14.5015 5.34791 15.977 7.59825 16.0251C5.83764 17.4045 3.63238 18.2158 1.23783 18.2158C0.808196 18.2158 0.411609 18.2008 0 18.1527C2.27136 19.6102 4.96635 20.4517 7.86865 20.4517C17.2906 20.4517 22.4462 12.6443 22.4462 5.86776C22.4462 5.64538 22.4462 5.423 22.4312 5.20062C23.4287 4.47037 24.303 3.56583 25 2.5501Z" fill="white"/>
</svg>
